<?xml version="1.0" standalone="no"?>
<!DOCTYPE svg PUBLIC "-//W3C//DTD SVG 20010904//EN"
 "http://www.w3.org/TR/2001/REC-SVG-20010904/DTD/svg10.dtd">
<svg version="1.0" xmlns="http://www.w3.org/2000/svg"
 width="700.000000pt" height="700.000000pt" viewBox="0 0 700.000000 700.000000"
 preserveAspectRatio="xMidYMid meet">
<metadata>
Created by potrace 1.14, written by Peter Selinger 2001-2017
</metadata>
<g transform="translate(0.000000,700.000000) scale(0.100000,-0.100000)"
fill="#000000" stroke="none">
<path d="M2485 6852 c-20 -3 -20 -10 -20 -292 l0 -290 1035 0 1035 0 0 290 c0
160 -2 290 -5 291 -12 3 -2027 4 -2045 1z"/>
<path d="M3348 5875 c-2 -2 -43 -6 -91 -9 -428 -32 -849 -175 -1242 -421 -60
-38 -112 -71 -115 -74 -3 -3 -27 -22 -55 -40 -27 -19 -52 -37 -55 -40 -3 -4
-27 -24 -55 -46 -166 -132 -334 -307 -472 -490 -267 -353 -470 -846 -518
-1259 -4 -28 -8 -53 -10 -56 -7 -12 -19 -230 -19 -360 1 -132 11 -320 19 -350
3 -8 7 -39 10 -69 9 -90 64 -328 105 -451 107 -326 267 -620 489 -895 115
-143 346 -361 485 -459 23 -16 43 -31 46 -35 6 -7 92 -64 185 -121 76 -47 286
-154 380 -193 154 -64 418 -142 550 -163 28 -4 55 -8 60 -9 187 -39 632 -41
880 -6 200 29 474 104 640 177 17 7 53 22 80 34 160 69 376 196 532 311 498
369 873 927 1028 1529 23 89 31 126 60 299 4 22 10 82 21 191 4 48 4 418 -1
455 -2 17 -6 64 -10 105 -13 157 -61 393 -107 525 -53 155 -142 346 -219 473
-21 35 -39 66 -39 68 0 13 -161 234 -218 298 l-35 39 216 212 215 212 -212
212 -212 212 -209 -215 -209 -214 -31 21 c-16 12 -32 24 -35 27 -13 15 -134
103 -210 152 -102 66 -263 154 -340 187 -30 13 -68 29 -85 37 -115 52 -340
119 -500 149 -49 10 -97 18 -105 20 -8 1 -42 6 -75 9 -33 4 -79 9 -103 12 -40
6 -409 13 -414 9z m367 -679 c141 -14 207 -25 315 -52 221 -54 435 -147 620
-268 53 -35 105 -70 116 -79 408 -326 658 -689 778 -1125 26 -96 36 -140 42
-192 3 -19 7 -41 9 -49 20 -53 28 -481 12 -611 -58 -481 -251 -883 -586 -1219
-117 -117 -144 -141 -256 -225 -217 -164 -510 -299 -760 -351 -44 -9 -87 -18
-96 -20 -106 -22 -211 -30 -399 -30 -220 0 -293 6 -469 41 -766 151 -1422 781
-1602 1539 -43 182 -54 290 -54 525 0 172 8 317 20 353 2 7 6 30 9 52 10 78
68 298 96 360 5 11 23 54 40 95 50 118 118 236 217 380 43 63 165 203 244 281
166 163 344 292 544 392 114 57 335 136 440 158 33 7 67 14 75 16 159 33 464
47 645 29z"/>
<path d="M3219 4551 c-5 -28 -3 -1645 2 -1653 5 -8 280 -13 532 -9 l37 1 0
833 0 834 -285 0 c-157 0 -285 -3 -286 -6z"/>
</g>
</svg>
